<svg width="512" height="512" viewBox="0 0 512 512" fill="none" xmlns="http://www.w3.org/2000/svg">
  <rect width="512" height="512" rx="120" fill="#6E9C56"/>
  <path d="M256 116C194.1 116 144 166.1 144 228C144 289.9 194.1 340 256 340C317.9 340 368 289.9 368 228C368 166.1 317.9 116 256 116ZM256 316C207.4 316 168 276.6 168 228C168 179.4 207.4 140 256 140C304.6 140 344 179.4 344 228C344 276.6 304.6 316 256 316Z" fill="white"/>
  <path d="M256 156C216.2 156 184 188.2 184 228C184 267.8 216.2 300 256 300C295.8 300 328 267.8 328 228C328 188.2 295.8 156 256 156ZM256 276C229.5 276 208 254.5 208 228C208 201.5 229.5 180 256 180C282.5 180 304 201.5 304 228C304 254.5 282.5 276 256 276Z" fill="white"/>
  <path d="M324 348H188C165.9 348 148 365.9 148 388V396H364V388C364 365.9 346.1 348 324 348Z" fill="#F5C35F"/>
  <path d="M130 144H110C104.5 144 100 148.5 100 154V174C100 179.5 104.5 184 110 184H130C135.5 184 140 179.5 140 174V154C140 148.5 135.5 144 130 144Z" fill="#E17654"/>
  <path d="M402 144H382C376.5 144 372 148.5 372 154V174C372 179.5 376.5 184 382 184H402C407.5 184 412 179.5 412 174V154C412 148.5 407.5 144 402 144Z" fill="#E17654"/>
  <path d="M256 180C229.5 180 208 201.5 208 228H304C304 201.5 282.5 180 256 180Z" fill="#F5C35F"/>
</svg>